<svg width="48" height="48" viewBox="0 0 48 48" fill="none" xmlns="http://www.w3.org/2000/svg">
<path d="M24 48C47.815 48 48 37.255 48 24C48 10.745 47.815 0 24 0C0.184999 0 0 10.745 0 24C0 37.255 0.184999 48 24 48Z" fill="#00BA4F"/>
<path d="M32.7259 22.6331C31.9209 22.0242 30.8757 21.7378 29.5903 21.7744C30.9202 20.5822 31.2418 19.0774 30.5557 17.2595C30.3121 16.5989 29.9665 16.0625 29.5181 15.6494C29.0694 15.2363 28.5367 14.9502 27.9182 14.7916C27.3001 14.6325 26.6543 14.5583 25.9821 14.5679C25.3097 14.5777 24.5556 14.656 23.7206 14.8028L22.6813 10.9243L20.296 11.5635L21.3064 15.3342C20.8933 15.4449 20.2661 15.6239 19.4249 15.8713L18.4063 12.0698L16.0206 12.709L17.0599 16.5875C16.7217 16.6892 16.2224 16.8286 15.5615 17.0057L12.2734 17.8701L12.9497 20.3942L14.669 19.9335C15.4539 19.7232 16.007 19.949 16.3281 20.6107L17.5117 25.0279C17.6151 25.0002 17.6991 24.9834 17.7638 24.977L17.5159 25.0434L19.1736 31.2303C19.2313 31.7756 19.002 32.1176 18.4856 32.256L16.7664 32.7167L17.0408 35.6619L20.139 34.8318C20.3352 34.7792 20.6197 34.7057 20.9929 34.6107C21.366 34.5163 21.6454 34.4442 21.8313 34.3944L22.8829 38.319L25.2689 37.6796L24.2297 33.8012C24.6662 33.6955 25.2974 33.5317 26.1236 33.3104L27.1586 37.1733L29.544 36.5341L28.4924 32.6095C29.3285 32.3416 30.0592 32.0638 30.6843 31.7749C31.3098 31.4859 31.8899 31.1411 32.4241 30.7393C32.9583 30.3379 33.3786 29.9034 33.6851 29.4364C33.9919 28.9696 34.2022 28.4236 34.3175 27.7988C34.432 27.1742 34.4282 26.4879 34.305 25.7399C34.0578 24.2779 33.5311 23.2423 32.7259 22.6331ZM20.2135 18.6288C20.2858 18.6095 20.4891 18.5522 20.8233 18.4571C21.1577 18.3619 21.4351 18.2821 21.6557 18.2175C21.8764 18.1529 22.1793 18.0855 22.5647 18.0152C22.9498 17.945 23.2784 17.901 23.5502 17.8831C23.822 17.8652 24.1289 17.8737 24.4701 17.9087C24.8118 17.9436 25.098 18.0209 25.329 18.1404C25.5604 18.2598 25.7756 18.4332 25.9746 18.6604C26.1739 18.8873 26.3189 19.1701 26.4096 19.5087C26.4866 19.796 26.5103 20.0702 26.4807 20.3311C26.4513 20.5919 26.3645 20.8269 26.2214 21.0357C26.0783 21.2446 25.9241 21.4345 25.7594 21.605C25.595 21.7754 25.3697 21.9375 25.0844 22.0909C24.7992 22.2443 24.5484 22.372 24.3323 22.4738C24.1161 22.5758 23.8398 22.6802 23.503 22.7868C23.1662 22.8935 22.9108 22.9731 22.7367 23.0252C22.5624 23.0773 22.3224 23.1417 22.0163 23.2182C21.7101 23.2949 21.5315 23.3398 21.4797 23.3537L20.2137 18.6288L20.2135 18.6288L20.2135 18.6288ZM29.5359 27.3644C29.5008 27.6269 29.4295 27.866 29.3215 28.0821C29.2131 28.2977 29.0503 28.5065 28.8331 28.7074C28.6161 28.9088 28.3994 29.0821 28.184 29.2278C27.9685 29.3739 27.7009 29.5221 27.3822 29.6738C27.0626 29.8254 26.7801 29.9476 26.5338 30.0413C26.2878 30.1347 25.9913 30.2361 25.6442 30.3457C25.2973 30.4549 25.0255 30.536 24.8294 30.5886C24.6331 30.6412 24.3845 30.7048 24.0837 30.78C23.7827 30.8555 23.5912 30.9041 23.5085 30.9262L22.1145 25.724C22.197 25.7018 22.441 25.6311 22.8462 25.5113C23.2515 25.3916 23.5831 25.2976 23.8413 25.2285C24.0994 25.1593 24.4599 25.0789 24.9228 24.9881C25.3851 24.897 25.7795 24.8406 26.1061 24.8191C26.4323 24.7978 26.7957 24.802 27.197 24.8321C27.5978 24.8621 27.9368 24.9389 28.2135 25.0627C28.4903 25.1868 28.7444 25.3713 28.9763 25.6172C29.2084 25.8628 29.3739 26.1705 29.4729 26.5399C29.5499 26.8275 29.5709 27.1019 29.5359 27.3644Z" fill="white"/>
</svg>
