<svg width="48" height="48" viewBox="0 0 48 48" fill="none" xmlns="http://www.w3.org/2000/svg">
<path d="M24 48C47.815 48 48 37.255 48 24C48 10.745 47.815 0 24 0C0.184999 0 0 10.745 0 24C0 37.255 0.184999 48 24 48Z" fill="#F3BA2F"/>
<path d="M18.4798 22.0265L24.5 16.0065L30.5233 22.0296L34.0263 18.5266L24.5 9L14.977 18.5235L18.4798 22.0265ZM9.00024 24.4995L12.5034 20.9964L16.0062 24.4993L12.5032 28.0024L9.00024 24.4995ZM18.4798 26.9735L24.5 32.9935L30.5231 26.9705L34.028 30.4717L34.0263 30.4735L24.5 40L14.9766 30.4768L14.9717 30.4718L18.4798 26.9735ZM32.9944 24.5014L36.4975 20.9983L40.0003 24.5012L36.4972 28.0043L32.9944 24.5014Z" fill="white"/>
<path d="M28.053 24.4981H28.0545L24.4999 20.9435L21.873 23.5704H21.8728L21.571 23.8724L20.9486 24.495L20.9436 24.4998L20.9486 24.5049L24.4999 28.0564L28.0545 24.5018L28.0562 24.4998L28.053 24.4981Z" fill="white"/>
</svg>
