<svg width="48" height="48" viewBox="0 0 48 48" fill="none" xmlns="http://www.w3.org/2000/svg">
<path d="M24 48C47.815 48 48 37.255 48 24C48 10.745 47.815 0 24 0C0.184999 0 0 10.745 0 24C0 37.255 0.184999 48 24 48Z" fill="#F7931A"/>
<path d="M32.2292 27.2946C31.8351 26.3614 31.0703 25.5881 29.9349 24.9749C31.6889 24.6061 32.7235 23.4596 33.0393 21.5354C33.1592 20.839 33.1279 20.1994 32.9455 19.6153C32.7628 19.0312 32.4434 18.5153 31.9855 18.0671C31.5281 17.6186 31.0041 17.2301 30.415 16.9012C29.8257 16.5722 29.1311 16.2619 28.3316 15.9705L29.3746 12.0782L26.9807 11.4368L25.9668 15.2209C25.5522 15.1099 24.9173 14.9508 24.0621 14.7437L25.0843 10.9286L22.6901 10.2871L21.6472 14.1794C21.3023 14.0981 20.7984 13.9687 20.1351 13.791L16.8437 12.8923L16.1649 15.4254L17.8904 15.8878C18.678 16.0988 19.0454 16.5726 18.9925 17.3088L17.8047 21.7418C17.9085 21.7696 17.9899 21.7971 18.0494 21.824L17.8005 21.7573L16.1369 27.9662C15.9134 28.4691 15.5424 28.6513 15.0242 28.5124L13.2988 28.0501L12.0595 30.7476L15.1686 31.5807C15.3656 31.6335 15.6497 31.7124 16.0217 31.8171C16.3934 31.9222 16.6724 31.9998 16.859 32.0498L15.8036 35.9883L18.1982 36.6299L19.2411 32.7377C19.6734 32.8648 20.3043 33.0392 21.1334 33.2614L20.0946 37.1381L22.4885 37.7795L23.5438 33.841C24.4049 34.0276 25.1794 34.1528 25.8676 34.2154C26.5562 34.2781 27.2335 34.2695 27.8993 34.1884C28.565 34.1075 29.1484 33.9408 29.6491 33.6887C30.1499 33.437 30.6067 33.068 31.0204 32.5828C31.4333 32.0974 31.7744 31.499 32.0426 30.7871C32.5613 29.3924 32.6233 28.228 32.2292 27.2946ZM23.3638 17.536C23.4363 17.5554 23.6417 17.6077 23.9799 17.6927C24.3183 17.7777 24.5994 17.8476 24.8236 17.9021C25.0478 17.9567 25.345 18.0501 25.7151 18.1824C26.0851 18.3147 26.3927 18.4413 26.6379 18.5621C26.8832 18.6829 27.1456 18.8443 27.4245 19.046C27.704 19.2477 27.9139 19.4585 28.0548 19.6783C28.1959 19.8982 28.296 20.1569 28.3549 20.4542C28.4143 20.7514 28.3984 21.07 28.3074 21.4097C28.2301 21.6981 28.1132 21.9482 27.9565 22.1602C27.8001 22.3721 27.6067 22.5328 27.3776 22.6425C27.1484 22.7522 26.919 22.8398 26.6904 22.9054C26.462 22.971 26.1849 22.9989 25.8599 22.989C25.5351 22.9793 25.253 22.9644 25.0141 22.9444C24.775 22.9246 24.4825 22.8766 24.1363 22.8003C23.7901 22.724 23.5281 22.6651 23.3507 22.623C23.173 22.5808 22.9322 22.5163 22.6277 22.4293C22.3231 22.3422 22.1453 22.2917 22.0934 22.2777L23.3639 17.536L23.3638 17.5359L23.3638 17.536ZM27.0826 29.8059C26.9204 30.0164 26.7384 30.1885 26.5362 30.3221C26.3337 30.4551 26.0875 30.5549 25.7979 30.6205C25.5082 30.6866 25.2329 30.7285 24.9727 30.7471C24.712 30.7659 24.4051 30.7605 24.052 30.7323C23.6982 30.7038 23.3914 30.6682 23.1302 30.626C22.8695 30.5838 22.561 30.5231 22.2043 30.4442C21.8481 30.365 21.5711 30.2992 21.3743 30.2465C21.1774 30.1937 20.9293 30.1242 20.6301 30.0387C20.3307 29.9533 20.1398 29.8994 20.0568 29.8771L21.4558 24.6563C21.5386 24.6785 21.7861 24.7394 22.1984 24.8386C22.6107 24.938 22.946 25.0227 23.2051 25.0921C23.4642 25.1615 23.8178 25.2726 24.2657 25.4259C24.7132 25.5787 25.0843 25.7276 25.3789 25.8728C25.6731 26.0179 25.9868 26.2039 26.3205 26.4314C26.6538 26.6586 26.9099 26.8955 27.0883 27.142C27.2666 27.3887 27.3948 27.6765 27.473 28.0066C27.5515 28.3366 27.5409 28.687 27.4415 29.0577C27.3642 29.3464 27.2447 29.5953 27.0826 29.8059Z" fill="white"/>
</svg>
