<svg width="16" height="16" viewBox="0 0 16 16" fill="none" xmlns="http://www.w3.org/2000/svg">
<path fill-rule="evenodd" clip-rule="evenodd" d="M16 7.84124L7.99998 0L0 7.84124L7.99998 15.6826L16 7.84124ZM3.05458 7.32845C2.94374 7.32845 2.88487 7.20014 2.95839 7.11883L7.84371 1.71796C7.89431 1.66202 7.98317 1.6613 8.03468 1.71641L13.0829 7.11732C13.1584 7.19813 13.0999 7.32845 12.9881 7.32845H9.71514C9.68082 7.32845 9.64792 7.31497 9.6238 7.29107L8.03459 5.71769C7.98245 5.66607 7.89663 5.66825 7.84731 5.72252L6.4258 7.28624C6.40142 7.31308 6.3665 7.32845 6.32987 7.32845H3.05458Z" fill="#FDC133"/>
</svg>
