<svg width="48" height="48" viewBox="0 0 48 48" fill="none" xmlns="http://www.w3.org/2000/svg">
<path d="M24 48C47.815 48 48 37.255 48 24C48 10.745 47.815 0 24 0C0.184999 0 0 10.745 0 24C0 37.255 0.184999 48 24 48Z" fill="#00439B"/>
<path fill-rule="evenodd" clip-rule="evenodd" d="M28.03 13H18.563L17.7785 17.571L26.3217 17.5822C30.5291 17.5806 31.7729 19.1742 31.7372 21.8159C31.7191 23.17 31.1559 25.4593 30.9126 26.2017C30.2642 28.1795 28.933 30.4364 23.9388 30.4283L15.6345 30.4245L14.8484 35H24.2943C27.6259 35 29.0424 34.596 30.5438 33.8731C33.8703 32.2715 35.8498 28.8488 36.6428 24.3822C37.8235 17.7315 36.3527 13 28.03 13Z" fill="white"/>
<path fill-rule="evenodd" clip-rule="evenodd" d="M14.4781 21.7046C11.9982 21.7046 11.643 23.3891 11.4082 24.4072C11.101 25.7403 11 26.2801 11 26.2801H20.6934C23.1734 26.2801 23.5286 24.5956 23.7634 23.5774C24.0706 22.2444 24.1716 21.7046 24.1716 21.7046H14.4781Z" fill="white"/>
</svg>
