<svg width="144" height="144" viewBox="0 0 144 144" fill="none" xmlns="http://www.w3.org/2000/svg">
<path d="M72 144C143.445 144 144 111.765 144 72C144 32.235 143.445 0 72 0C0.554998 0 0 32.235 0 72C0 111.765 0.554998 144 72 144Z" fill="#BA9F33"/>
<path fill-rule="evenodd" clip-rule="evenodd" d="M104.907 55.801C98.36 39.095 82.1754 36 82.1754 36H36.0007L36.1788 53.0164H45.3746V91.0143H36V108H80.8973C91.7178 108 100.392 97.2555 100.392 97.2555C114.281 77.7759 104.906 55.801 104.906 55.801H104.907ZM81.1383 85.8075C81.1383 85.8075 77.6166 90.828 73.7849 90.828H66.12L65.9384 53.0581H75.775C75.775 53.0581 80.3324 53.9997 83.5164 62.9115C83.5164 62.9115 87.7376 75.6709 81.1383 85.8075V85.8075Z" fill="white"/>
</svg>
