<svg width="48" height="48" viewBox="0 0 48 48" fill="none" xmlns="http://www.w3.org/2000/svg">
<path d="M24 48C47.815 48 48 37.255 48 24C48 10.745 47.815 0 24 0C0.184999 0 0 10.745 0 24C0 37.255 0.184999 48 24 48Z" fill="black"/>
<path fill-rule="evenodd" clip-rule="evenodd" d="M24 10C24.1764 9.99862 24.3473 10.0854 24.4563 10.2412L30.1396 18.3684C30.1866 18.4356 30.2197 18.5125 30.2368 18.5941L32.9867 31.7444C33.0384 31.9916 32.9369 32.2464 32.7336 32.3797L24.3004 37.9107C24.2081 37.9713 24.1038 38.0008 24 38C23.8962 38.0008 23.7919 37.9713 23.6996 37.9107L15.2664 32.3797C15.0631 32.2464 14.9616 31.9916 15.0133 31.7444L17.7632 18.5941C17.7803 18.5125 17.8134 18.4356 17.8604 18.3684L23.5437 10.2412C23.6527 10.0854 23.8236 9.99862 24 10ZM23.4332 12.4011L18.9364 18.8316L20.0295 22.4245L23.4332 16.1374V12.4011ZM24 17.4858L20.496 23.9581L22.7228 31.2775H25.2772L27.504 23.9581L24 17.4858ZM28.2607 25.3558L26.4592 31.2775H31.4665L28.2607 25.3558ZM30.4607 32.469H26.0967L25.0089 36.0446L30.4607 32.469ZM24 35.4757L24.9147 32.469H23.0853L24 35.4757ZM21.5408 31.2775L19.7393 25.3558L16.5335 31.2775H21.5408ZM16.9093 28.1878L19.2728 23.8222L18.4131 20.9965L16.9093 28.1878ZM17.5393 32.469H21.9033L22.9911 36.0446L17.5393 32.469ZM31.0907 28.1878L28.7272 23.8222L29.5869 20.9965L31.0907 28.1878ZM29.0636 18.8316L27.9705 22.4245L24.5668 16.1374V12.4011L29.0636 18.8316Z" fill="white"/>
</svg>
