<svg width="48" height="48" viewBox="0 0 48 48" fill="none" xmlns="http://www.w3.org/2000/svg">
<path d="M24 48C47.815 48 48 37.255 48 24C48 10.745 47.815 0 24 0C0.184999 0 0 10.745 0 24C0 37.255 0.184999 48 24 48Z" fill="#2468E4"/>
<path d="M23.5692 36.7627L17.3093 26.5821C17.0269 26.1229 17.6142 25.6278 18.0518 25.9563L23.6925 30.1902C23.8744 30.3268 24.1298 30.3268 24.3117 30.1902L29.9525 25.9563C30.3901 25.6278 30.9774 26.1229 30.695 26.5821L24.435 36.7627C24.2405 37.0792 23.7638 37.0792 23.5692 36.7627Z" fill="white"/>
<path d="M17.0576 22.136L23.5496 10.2584C23.7393 9.91126 24.2581 9.91458 24.443 10.2642L30.9454 22.5576C31.0627 22.7794 30.9854 23.0504 30.7667 23.1838L24.2848 27.1368C24.1136 27.2413 23.8937 27.2366 23.7274 27.1251L17.2149 22.7561C17.0074 22.6169 16.94 22.3512 17.0576 22.136Z" fill="white"/>
</svg>
