<svg width="48" height="48" viewBox="0 0 48 48" fill="none" xmlns="http://www.w3.org/2000/svg">
<path d="M24 48C47.815 48 48 37.255 48 24C48 10.745 47.815 0 24 0C0.184999 0 0 10.745 0 24C0 37.255 0.184999 48 24 48Z" fill="#2E71F0"/>
<path fill-rule="evenodd" clip-rule="evenodd" d="M30.4548 11H18.1227C16.3981 11 15 12.3695 15 14.0588V35.4706C15 36.3153 15.699 37 16.5613 37C17.3275 37 18.0466 36.6319 18.4927 36.0115L33.0081 15.8199C34.4649 13.7934 32.9852 11 30.4548 11ZM30.8718 37C33.3962 37 34.8773 34.2183 33.4325 32.1906C31.8385 29.9533 30.7983 28.2916 29.25 26.0682C28.9287 25.6068 27.7917 25.6081 27.4687 26.0682L20.6838 35.7483C20.3115 36.2785 20.5846 37 21.2343 37L30.8718 37Z" fill="white"/>
</svg>
