<svg width="48" height="48" viewBox="0 0 48 48" fill="none" xmlns="http://www.w3.org/2000/svg">
<path d="M24 48C47.815 48 48 37.255 48 24C48 10.745 47.815 0 24 0C0.184999 0 0 10.745 0 24C0 37.255 0.184999 48 24 48Z" fill="#F4F4F4"/>
<path d="M24 9L21.2487 10.5826L13.7513 14.9174L11 16.5V31.5L13.7513 33.0826L21.3175 37.4174L24.0688 39L26.8201 37.4174L34.2487 33.0826L37 31.5V16.5L34.2487 14.9174L26.7513 10.5826L24 9ZM16.5026 28.3349V19.6651L24 15.3303L31.4974 19.6651V28.3349L24 32.6697L16.5026 28.3349Z" fill="#2A5ADA"/>
</svg>
