<svg width="144" height="144" viewBox="0 0 144 144" fill="none" xmlns="http://www.w3.org/2000/svg">
<path d="M72 144C143.445 144 144 111.765 144 72C144 32.235 143.445 0 72 0C0.554998 0 0 32.235 0 72C0 111.765 0.554998 144 72 144Z" fill="#FE0000"/>
<g clip-path="url(#clip0)">
<path d="M91.251 34.4654C92.1119 34.5275 92.6977 34.0867 93.2924 33.5068C96.1031 30.7641 99.3251 28.696 103.13 27.5688C106.198 26.6605 106.87 26.9771 107.609 30.0836C108.671 34.5541 108.316 39.0216 107.494 43.4803C107.213 45.0129 106.955 46.5484 106.689 48.0839C106.55 48.2821 106.337 48.4626 106.287 48.6816C105.402 52.5159 104.23 56.2704 103.053 60.022C102.864 60.6226 103.059 61.0693 103.331 61.5457C107.026 68.0221 108.591 75.0459 108.665 82.4454C105.077 81.8389 101.497 81.8655 97.97 82.7827C94.2274 83.7561 90.961 85.6378 88.2154 88.3656C87.3781 89.197 86.9639 89.0727 86.671 87.9662C86.3012 86.5757 85.6 85.3241 84.9047 84.0786C79.7893 74.892 67.8305 73.034 60.1913 80.2383C57.8599 82.4365 56.2415 85.1289 54.9545 88.0254C54.5196 89.0017 54.1912 89.1911 53.3658 88.3538C47.6497 82.5667 40.6644 81.043 32.8595 82.3626C32.8447 81.9691 32.7885 81.5756 32.824 81.188C33.3447 75.179 34.543 69.3032 37.2117 63.88C38.3271 61.6137 38.5312 59.7024 37.4927 57.4273C36.2116 54.6166 35.9158 51.4775 34.8418 48.5839C33.8566 43.7081 33.4572 38.779 33.6731 33.8115C33.756 31.9032 33.9631 30.0126 34.9276 28.273C35.4128 27.3942 35.969 26.9386 37.0105 27.0067C40.1792 27.2167 42.6141 28.912 44.981 30.7907C46.6586 32.1221 48.1024 33.7553 50.0255 34.776C49.5521 35.3944 50.1645 35.6518 50.4574 35.9743C51.5521 37.1755 52.8125 38.2494 53.7563 39.5542C55.3332 41.7377 56.9546 42.1341 59.6824 41.3382C68.0139 38.9151 76.4046 39.3471 84.6621 42.0394C85.2243 42.2229 85.603 42.3412 86.0408 41.7465C87.6178 39.6045 89.3663 37.6015 91.1918 35.6695C91.5942 35.2435 91.7599 34.8973 91.251 34.4654ZM38.4395 32.6783C38.0549 32.6813 37.7028 32.7612 37.6466 33.0689C37.3566 34.6074 36.2738 35.8707 36.2974 37.5453C36.3773 43.288 37.8537 48.723 39.759 54.0751C39.9099 54.4982 39.7265 55.229 40.3981 55.2468C40.9721 55.2615 40.9869 54.5426 41.262 54.1639C43.9425 50.4538 46.916 47.0454 50.8213 44.5543C52.1409 43.714 52.2326 43.0898 51.1113 41.9891C48.1704 39.1045 45.1023 36.3648 41.5313 34.2642C40.5224 33.6665 39.4425 33.1872 38.4395 32.6783ZM104.375 38.9891C104.346 37.3678 104.399 35.7612 103.941 34.1665C103.562 32.8529 102.73 32.634 101.716 33.1192C100.106 33.8884 98.4641 34.6695 97.044 35.7287C94.4167 37.6873 92.1001 40.0157 89.7539 42.3057C88.7924 43.2436 89.0527 43.9478 89.9492 44.3442C91.3101 44.9507 92.0971 46.1283 93.1741 47.0011C95.9078 49.2112 98.0321 51.942 100.118 54.7201C100.278 54.9331 100.233 55.371 100.653 55.2675C100.967 55.1905 101.026 54.8562 101.127 54.5722C102.917 49.5218 104.251 44.3797 104.375 38.9891ZM60.2594 75.9187C60.9132 75.7057 62.0316 76.2441 62.4132 75.321C62.7416 74.5252 62.002 73.7678 61.4487 73.1405C61.0937 72.7382 60.7032 72.3417 60.2682 72.031C57.4161 69.9985 54.422 68.2026 51.1645 66.883C50.4426 66.5901 49.6616 66.4244 48.8953 66.2647C48.4633 66.1759 48.0402 66.2262 47.7532 66.7055C46.8449 68.2144 47.4012 71.2973 48.8686 72.2796C52.2681 74.5577 56.1173 75.4926 60.2594 75.9187ZM82.1414 75.8565C85.6385 75.5932 89.029 74.6701 92.1711 72.9453C94.7066 71.5547 95.1593 70.3772 94.6416 67.5073C94.4315 66.3357 93.9226 65.8386 92.7421 66.2173C88.2835 67.6434 84.3426 69.9748 80.8751 73.0991C80.2626 73.6524 79.6206 74.4689 79.9372 75.2885C80.2833 76.182 81.3248 75.7086 82.1414 75.8565ZM87.9048 63.9747C88.3959 63.9747 88.89 63.9984 89.3811 63.9717C91.7599 63.8297 92.8723 61.8711 91.8042 59.7202C90.9255 57.9509 88.7924 56.7645 86.9462 57.019C85.1947 57.2616 83.0852 59.2439 82.7479 60.9599C82.4668 62.3948 83.1 63.3445 84.529 63.6522C85.6414 63.8919 86.7687 63.9836 87.9048 63.9747ZM52.6557 63.9658C54.2178 64.0487 55.3895 63.9067 56.5522 63.6759C58.1262 63.3652 58.8037 62.3297 58.3777 60.7823C57.928 59.1462 56.7416 58.0989 55.3214 57.3503C53.8214 56.5604 51.8509 57.0338 50.4338 58.3711C49.0846 59.6433 48.6852 61.0752 49.2385 62.4776C49.9722 64.3327 51.6054 63.8889 52.6557 63.9658Z" fill="#FDA101"/>
<path d="M108.662 82.4483C108.586 75.0458 107.023 68.025 103.328 61.5485C103.056 61.0722 102.864 60.6225 103.05 60.0249C104.228 56.2733 105.399 52.5188 106.284 48.6844C106.334 48.4655 106.55 48.285 106.686 48.0868C111.083 54.2171 113.663 61.0308 114.464 68.5368C115.384 77.1849 114.047 85.4395 110.009 93.1526C103.275 106.014 92.751 114.135 78.4312 116.461C54.493 120.348 34.7057 106.094 28.7973 85.3448C25.0813 72.2943 27.1435 59.9065 34.8359 48.5868C35.9099 51.4803 36.2057 54.6194 37.4868 57.4301C38.5253 59.7053 38.3211 61.6166 37.2057 63.8829C34.5371 69.3061 33.3388 75.1819 32.8181 81.1909C32.7856 81.5784 32.8418 81.9749 32.8536 82.3684C32.6258 84.1288 33.0163 85.7856 33.6495 87.4129C34.682 90.0668 36.256 92.3745 38.1525 94.4633C44.0224 100.931 51.203 105.469 59.283 108.644C64.2949 110.611 69.4459 111.774 74.8691 110.91C79.7685 110.129 84.3988 108.505 88.8042 106.245C95.7865 102.659 101.92 98.0698 106.059 91.2325C107.677 88.549 108.807 85.6761 108.662 82.4483Z" fill="#FE0000"/>
<path d="M91.251 34.4654C91.7599 34.8974 91.5942 35.2435 91.1889 35.6755C89.3634 37.6075 87.6148 39.6105 86.0379 41.7525C85.6 42.3472 85.2213 42.2289 84.6592 42.0454C76.4046 39.3531 68.0139 38.9211 59.6795 41.3442C56.9487 42.1371 55.3273 41.7407 53.7533 39.5602C52.8095 38.2554 51.5492 37.1785 50.4545 35.9802C50.1616 35.6577 49.5491 35.4003 50.0225 34.782C57.5167 30.8796 65.4665 29.134 73.9164 29.6517C80.0407 30.0245 85.7746 31.776 91.251 34.4654Z" fill="#FE0000"/>
<path d="M108.662 82.4487C108.807 85.6736 107.68 88.5494 106.059 91.227C101.92 98.0644 95.7866 102.653 88.8042 106.239C84.4018 108.499 79.7685 110.124 74.8691 110.905C69.4459 111.769 64.2979 110.606 59.283 108.638C51.2001 105.464 44.0224 100.925 38.1525 94.4578C36.256 92.369 34.6791 90.0613 33.6495 87.4074C33.0163 85.7801 32.6258 84.1233 32.8536 82.3629C40.6585 81.0463 47.6438 82.5671 53.3598 88.3542C54.1883 89.1914 54.5167 89.005 54.9486 88.0257C56.2356 85.1292 57.854 82.4369 60.1854 80.2386C67.8246 73.0344 79.7833 74.8924 84.8988 84.0789C85.5941 85.3275 86.2982 86.576 86.6651 87.9666C86.958 89.0731 87.3722 89.1974 88.2095 88.366C90.9551 85.6381 94.2214 83.7564 97.9641 82.7831C101.491 81.8688 105.074 81.8422 108.662 82.4487ZM65.2299 101.295C66.15 99.7952 65.7624 98.5999 65.7092 97.4667C65.6677 96.5555 65.9222 96.3839 66.7713 96.5111C70.2506 97.0348 73.7418 97.0259 77.2182 96.4815C78.1857 96.3306 78.3484 96.6176 78.3454 97.52C78.3395 98.6295 77.9549 99.8336 78.875 101.058C79.3425 99.9549 79.4845 98.588 80.1828 98.1857C81.6325 97.3484 81.3928 96.0288 81.8603 94.7744C80.5703 94.8957 79.449 94.7655 78.2034 95.1235C76.52 95.6087 74.5495 95.6886 73.23 93.8602C72.7093 93.1383 72.9548 91.0228 73.7625 90.6796C76.7596 89.4015 77.6738 87.0198 77.4105 83.9783C77.2981 82.6647 76.3661 81.7239 74.9785 81.6943C72.7625 81.6469 70.5465 81.6765 68.3305 81.6824C67.3275 81.6854 66.6559 82.1854 66.3157 83.1174C65.6381 84.9843 66.2654 87.4666 67.7417 88.8157C68.5139 89.5199 69.366 90.1737 70.3483 90.4577C71.9992 90.9341 71.5613 92.2329 71.4282 93.2122C71.3069 94.1057 70.5021 95.0436 69.6648 95.1945C68.3897 95.4282 66.9518 95.4282 65.721 95.0614C64.4458 94.6826 63.2831 94.8217 62.0345 94.804C62.9369 97.0348 64.4192 98.7922 65.2299 101.295ZM71.6501 97.6945C71.6501 97.6916 71.6501 97.6886 71.6501 97.6886C70.7654 97.6886 69.8838 97.6679 68.9991 97.7005C68.6471 97.7123 68.1737 97.4786 67.9784 97.9874C67.8867 98.2212 67.9755 98.4727 68.2388 98.5999C68.6204 98.7833 69.0879 99.2301 69.4222 98.8307C70.2862 97.801 70.6264 98.5673 71.0228 99.2034C71.5524 100.047 72.0613 99.9372 72.6146 99.2271C72.9785 98.7626 73.3128 98.2567 74.014 98.8869C74.3809 99.2153 74.7418 98.8011 75.014 98.5437C75.1294 98.4342 75.1916 98.1738 75.1531 98.0111C75.0377 97.517 74.6028 97.7123 74.298 97.7034C73.4164 97.6768 72.5347 97.6945 71.6501 97.6945Z" fill="#FDFBFA"/>
<path d="M38.4395 32.6781C39.4425 33.187 40.5224 33.6663 41.5313 34.261C45.1023 36.3645 48.1704 39.1013 51.1113 41.9859C52.2326 43.0866 52.1409 43.7079 50.8214 44.5511C46.916 47.0422 43.9425 50.4535 41.262 54.1607C40.9869 54.5394 40.9721 55.2583 40.3981 55.2436C39.7265 55.2258 39.9099 54.495 39.759 54.0719C37.8537 48.7198 36.3744 43.2848 36.2975 37.5421C36.2738 35.8675 37.3566 34.6071 37.6466 33.0657C37.7058 32.758 38.0578 32.6811 38.4395 32.6781Z" fill="#FE7E00"/>
<path d="M104.375 38.9891C104.251 44.3797 102.917 49.5218 101.124 54.5692C101.023 54.8533 100.964 55.1846 100.651 55.2645C100.23 55.3681 100.275 54.9302 100.115 54.7172C98.0292 51.939 95.9049 49.2082 93.1711 46.9981C92.0912 46.1253 91.3072 44.9478 89.9462 44.3413C89.0527 43.9448 88.7894 43.2377 89.751 42.3028C92.0971 40.0128 94.4167 37.6844 97.041 35.7257C98.4611 34.6666 100.103 33.8855 101.713 33.1162C102.727 32.631 103.559 32.85 103.938 34.1636C104.399 35.7612 104.346 37.3648 104.375 38.9891Z" fill="#FE7E00"/>
<path d="M60.2593 75.9188C56.1173 75.4928 52.2681 74.5608 48.8657 72.2827C47.3982 71.3004 46.842 68.2175 47.7503 66.7086C48.0402 66.2293 48.4603 66.179 48.8923 66.2678C49.6586 66.4275 50.4397 66.5932 51.1616 66.8861C54.419 68.2027 57.4102 69.9986 60.2653 72.0341C60.7031 72.3448 61.0907 72.7383 61.4458 73.1436C61.999 73.7709 62.7357 74.5312 62.4103 75.3241C62.0345 76.2413 60.9132 75.7028 60.2593 75.9188Z" fill="#0A0401"/>
<path d="M82.1414 75.8568C81.3248 75.7089 80.2833 76.1823 79.9401 75.2888C79.6236 74.4663 80.2656 73.6497 80.878 73.0994C84.3455 69.9751 88.2864 67.6437 92.7451 66.2176C93.9256 65.8389 94.4315 66.3389 94.6445 67.5076C95.1623 70.3804 94.7067 71.555 92.1741 72.9455C89.029 74.6704 85.6385 75.5905 82.1414 75.8568Z" fill="#0A0401"/>
<path d="M87.9047 63.9743C86.7686 63.9832 85.6444 63.8915 84.5319 63.6518C83.1029 63.3441 82.4698 62.3944 82.7508 60.9595C83.0851 59.2435 85.1976 57.2612 86.9491 57.0186C88.7953 56.7612 90.9314 57.9476 91.8072 59.7198C92.8723 61.8707 91.7598 63.8293 89.3841 63.9713C88.89 64.0009 88.3959 63.9743 87.9047 63.9743Z" fill="#FDFBFA"/>
<path d="M52.6557 63.9662C51.6054 63.8863 49.9722 64.3331 49.2385 62.478C48.6852 61.0756 49.0846 59.6437 50.4338 58.3714C51.8509 57.0341 53.8214 56.5608 55.3214 57.3507C56.7445 58.0993 57.928 59.1496 58.3777 60.7827C58.8037 62.3271 58.1262 63.3626 56.5522 63.6763C55.3895 63.907 54.2178 64.049 52.6557 63.9662Z" fill="#FDFBFA"/>
<path d="M65.2299 101.295C64.4162 98.7922 62.934 97.0377 62.0286 94.8099C63.2772 94.8277 64.4399 94.6886 65.7151 95.0673C66.9459 95.4312 68.3838 95.4312 69.6589 95.2004C70.4962 95.0466 71.301 94.1117 71.4223 93.2182C71.5554 92.2418 71.9933 90.943 70.3424 90.4637C69.3601 90.1796 68.508 89.5287 67.7358 88.8216C66.2595 87.4725 65.6293 84.9873 66.3098 83.1233C66.65 82.1914 67.3186 81.6913 68.3246 81.6884C70.5406 81.6825 72.7566 81.6529 74.9726 81.7002C76.3632 81.7298 77.2922 82.6677 77.4046 83.9843C77.6679 87.0228 76.7537 89.4045 73.7566 90.6856C72.9489 91.0288 72.7063 93.1442 73.2241 93.8661C74.5436 95.6916 76.5111 95.6146 78.1975 95.1294C79.4431 94.7714 80.5644 94.9016 81.8544 94.7803C81.3869 96.0377 81.6266 97.3573 80.1768 98.1916C79.4786 98.594 79.3366 99.9609 78.8691 101.064C77.949 99.8396 78.3336 98.6354 78.3395 97.5259C78.3425 96.6235 78.1798 96.3365 77.2123 96.4874C73.7389 97.0318 70.2477 97.0377 66.7654 96.517C65.9163 96.3898 65.6618 96.5614 65.7032 97.4727C65.7624 98.5969 66.1529 99.7952 65.2299 101.295Z" fill="#0A0401"/>
<path d="M71.6501 97.6946C72.5347 97.6946 73.4164 97.6798 74.301 97.7035C74.6057 97.7123 75.0406 97.5141 75.156 98.0111C75.1945 98.1739 75.1324 98.4342 75.017 98.5437C74.7448 98.8011 74.3838 99.2153 74.017 98.8869C73.3158 98.2567 72.9814 98.7597 72.6175 99.2271C72.0643 99.9343 71.5554 100.047 71.0258 99.2035C70.6293 98.5674 70.2891 97.804 69.4252 98.8307C69.0909 99.2271 68.6204 98.7834 68.2417 98.5999C67.9814 98.4727 67.8926 98.2212 67.9814 97.9875C68.1796 97.4786 68.65 97.7153 69.0021 97.7005C69.8838 97.6679 70.7684 97.6887 71.653 97.6887C71.6501 97.6887 71.6501 97.6916 71.6501 97.6946Z" fill="#0A0401"/>
</g>
<defs>
<clipPath id="clip0">
<rect width="90" height="90" fill="white" transform="translate(27 27)"/>
</clipPath>
</defs>
</svg>
