<svg width="48" height="48" viewBox="0 0 48 48" fill="none" xmlns="http://www.w3.org/2000/svg">
<path d="M24 48C47.815 48 48 37.255 48 24C48 10.745 47.815 0 24 0C0.184999 0 0 10.745 0 24C0 37.255 0.184999 48 24 48Z" fill="#F4F4F4"/>
<g clip-path="url(#clip0)">
<path d="M36.9281 18.4345C35.6156 17.2226 33.8 15.372 32.3213 14.0595L32.2338 13.9983C32.0882 13.8814 31.924 13.7897 31.7481 13.727V13.727C28.1825 13.062 11.5881 9.96014 11.2644 9.99952C11.1737 10.0122 11.087 10.0451 11.0106 10.0958L10.9275 10.1614C10.8252 10.2653 10.7474 10.3909 10.7 10.5289L10.6781 10.5858V10.8964V10.9445C12.5463 16.1464 19.9225 33.187 21.375 37.1858C21.4625 37.457 21.6288 37.9733 21.9394 37.9995H22.0094C22.1756 37.9995 22.8844 37.0633 22.8844 37.0633C22.8844 37.0633 35.5544 21.6983 36.8363 20.062C37.0022 19.8605 37.1487 19.6437 37.2738 19.4145C37.3057 19.2352 37.2906 19.0507 37.2301 18.879C37.1695 18.7072 37.0655 18.5541 36.9281 18.4345V18.4345ZM26.135 20.2239L31.5425 15.7395L34.7144 18.662L26.135 20.2239ZM24.035 19.9308L14.725 12.3008L29.7881 15.0789L24.035 19.9308ZM24.875 21.9301L34.4038 20.3945L23.51 33.5195L24.875 21.9301ZM13.4606 13.062L23.2563 21.3745L21.8388 33.5283L13.4606 13.062Z" fill="#FF060A"/>
</g>
<defs>
<clipPath id="clip0">
<rect width="28" height="28" fill="white" transform="translate(10 10)"/>
</clipPath>
</defs>
</svg>
