<svg width="48" height="48" viewBox="0 0 48 48" fill="none" xmlns="http://www.w3.org/2000/svg">
<path d="M24 48C47.815 48 48 37.255 48 24C48 10.745 47.815 0 24 0C0.184999 0 0 10.745 0 24C0 37.255 0.184999 48 24 48Z" fill="#F4F4F4"/>
<g clip-path="url(#clip0)">
<path fill-rule="evenodd" clip-rule="evenodd" d="M16.9235 36.9998C17.018 36.9998 17.1361 36.9998 17.2428 36.9998H30.1455C32.6983 36.9998 34.1961 34.2201 32.7351 32.1939L27.2266 24.5543C26.8928 24.0914 26.8509 23.4885 27.1048 22.9939C25.6888 24.9398 24.2752 26.8919 22.8593 28.8384C20.8833 31.5546 18.9011 34.283 16.9235 36.9998Z" fill="url(#paint0_linear)"/>
<path fill-rule="evenodd" clip-rule="evenodd" d="M30.3853 11.0003C30.2908 11.0002 30.1727 11.0003 30.066 11.0003L17.1633 11.0002C14.6105 11.0002 13.1127 13.7799 14.5737 15.8062L20.0822 23.4458C20.416 23.9087 20.4579 24.5115 20.204 25.0062C21.62 23.0602 23.0336 21.1081 24.4495 19.1617C26.4255 16.4454 28.4076 13.717 30.3853 11.0003Z" fill="url(#paint1_linear)"/>
<path fill-rule="evenodd" clip-rule="evenodd" d="M30.3134 11C28.2943 13.7211 26.2766 16.442 24.2592 19.1625C21.0388 23.5052 17.8192 27.8469 14.5959 32.1864C13.154 34.1275 14.49 36.7725 16.8982 37C18.9173 34.2791 20.9349 31.5583 22.9522 28.8378C26.1726 24.495 29.3923 20.1532 32.6158 15.8136C34.0576 13.8725 32.7216 11.2275 30.3134 11Z" fill="#FFDD87"/>
</g>
<defs>
<linearGradient id="paint0_linear" x1="33.3089" y1="36.2392" x2="20.0322" y2="22.9447" gradientUnits="userSpaceOnUse">
<stop stop-color="#2965FF"/>
<stop offset="1" stop-color="#2519AB"/>
</linearGradient>
<linearGradient id="paint1_linear" x1="13.9999" y1="11.7609" x2="27.2766" y2="25.0554" gradientUnits="userSpaceOnUse">
<stop stop-color="#2965FF"/>
<stop offset="1" stop-color="#2519AB"/>
</linearGradient>
<clipPath id="clip0">
<rect x="14" y="11" width="19.5" height="26" fill="white"/>
</clipPath>
</defs>
</svg>
