<svg width="48" height="48" viewBox="0 0 48 48" fill="none" xmlns="http://www.w3.org/2000/svg">
<path d="M24 48C47.815 48 48 37.255 48 24C48 10.745 47.815 0 24 0C0.184999 0 0 10.745 0 24C0 37.255 0.184999 48 24 48Z" fill="#F4F4F4"/>
<g clip-path="url(#clip0)">
<path d="M21.1961 15.8128C20.8717 15.7664 20.8562 15.751 21.0107 15.7355C21.3042 15.6892 21.984 15.751 22.4629 15.8591C23.5752 16.1218 24.5793 16.8015 25.6453 17.991L25.9234 18.3155L26.325 18.2537C28.0398 17.9756 29.801 18.1919 31.2686 18.8716C31.6702 19.057 32.3036 19.4278 32.3809 19.5204C32.4118 19.5513 32.4581 19.7522 32.489 19.953C32.5971 20.6791 32.5508 21.2198 32.3191 21.6369C32.1955 21.8686 32.1955 21.9304 32.2727 22.1313C32.3345 22.2857 32.5199 22.3939 32.6898 22.3939C33.0606 22.3939 33.4468 21.8068 33.6322 20.9881L33.7094 20.6636L33.8485 20.8181C34.6364 21.6987 35.2543 22.9191 35.347 23.7843L35.3779 24.016L35.2389 23.8152C35.0071 23.4598 34.7909 23.2281 34.4973 23.0273C33.9721 22.672 33.4159 22.5638 31.9483 22.4866C30.6197 22.4093 29.8627 22.3012 29.1212 22.054C27.8544 21.6369 27.2056 21.0962 25.7071 19.1033C25.0428 18.2228 24.6257 17.7439 24.2086 17.3422C23.2971 16.4616 22.3856 15.9982 21.1961 15.8128Z" fill="#FF007A"/>
<path d="M32.7053 17.7748C32.7362 17.1878 32.8134 16.8015 32.9834 16.4462C33.0452 16.3072 33.107 16.1836 33.1224 16.1836C33.1379 16.1836 33.107 16.2917 33.0606 16.4153C32.937 16.7552 32.9216 17.2341 32.9988 17.7748C33.107 18.47 33.1533 18.5627 33.8948 19.3197C34.2347 19.675 34.6364 20.123 34.7909 20.3084L35.0535 20.6482L34.7909 20.4011C34.4664 20.0921 33.7249 19.505 33.555 19.4278C33.4468 19.366 33.4314 19.366 33.3541 19.4433C33.2923 19.505 33.2769 19.5977 33.2769 20.0457C33.2614 20.7409 33.1688 21.1735 32.937 21.6215C32.8134 21.8532 32.798 21.8069 32.9061 21.5443C32.9834 21.3434 32.9988 21.2507 32.9988 20.5864C32.9988 19.2424 32.8443 18.918 31.902 18.3773C31.6702 18.2383 31.2686 18.0374 31.0368 17.9293C30.7897 17.8211 30.6043 17.7285 30.6197 17.7285C30.6506 17.6976 31.5621 17.9602 31.9174 18.1147C32.4581 18.331 32.5508 18.3464 32.6126 18.331C32.6589 18.2846 32.6898 18.161 32.7053 17.7748Z" fill="#FF007A"/>
<path d="M21.8295 20.0767C21.1806 19.1806 20.7635 17.7903 20.8562 16.7552L20.8871 16.4308L21.0416 16.4617C21.3197 16.508 21.7986 16.6934 22.0303 16.8325C22.6483 17.2032 22.9263 17.713 23.189 18.9798C23.2662 19.3506 23.3743 19.7831 23.4207 19.9222C23.4979 20.1539 23.7914 20.6946 24.0386 21.0345C24.2086 21.2816 24.1004 21.4052 23.7142 21.3743C23.1272 21.3125 22.3393 20.7718 21.8295 20.0767Z" fill="#FF007A"/>
<path d="M31.9174 26.7969C28.8586 25.561 27.7772 24.495 27.7772 22.6875C27.7772 22.4249 27.7926 22.2086 27.7926 22.2086C27.8081 22.2086 27.9162 22.3013 28.0553 22.4095C28.6732 22.9038 29.3684 23.1201 31.2995 23.3982C32.4272 23.5681 33.076 23.6917 33.6631 23.8925C35.5324 24.5105 36.691 25.7772 36.9691 27.492C37.0463 27.9864 37 28.9288 36.8764 29.4231C36.7683 29.8093 36.4593 30.52 36.382 30.5354C36.3666 30.5354 36.3357 30.4582 36.3357 30.3346C36.3048 29.6857 35.9804 29.0678 35.4397 28.5889C34.7908 28.0327 33.9566 27.6156 31.9174 26.7969Z" fill="#FF007A"/>
<path d="M29.7546 27.3066C29.7237 27.0749 29.6465 26.7813 29.6001 26.6578L29.5229 26.426L29.6619 26.596C29.8627 26.8277 30.0172 27.1058 30.1563 27.492C30.2644 27.7855 30.2644 27.8782 30.2644 28.3571C30.2644 28.8206 30.2489 28.9287 30.1563 29.1913C30.0018 29.6084 29.8164 29.902 29.5074 30.2264C28.9513 30.798 28.2252 31.107 27.1901 31.246C27.0047 31.2614 26.4795 31.3078 26.016 31.3387C24.8574 31.4005 24.085 31.5241 23.3898 31.7712C23.2971 31.8021 23.2044 31.833 23.1889 31.8176C23.158 31.7867 23.637 31.5086 24.0232 31.3232C24.5639 31.0606 25.12 30.9216 26.3405 30.7053C26.943 30.6126 27.5609 30.489 27.7154 30.4272C29.2448 29.9483 30.0018 28.7588 29.7546 27.3066Z" fill="#FF007A"/>
<path d="M31.1604 29.7938C30.7588 28.9132 30.6661 28.079 30.8824 27.2911C30.9133 27.2138 30.9441 27.1366 30.975 27.1366C31.0059 27.1366 31.0986 27.1829 31.1913 27.2447C31.3767 27.3683 31.7629 27.5846 32.7516 28.1253C34.003 28.805 34.7136 29.3303 35.208 29.9328C35.6405 30.4581 35.9032 31.0605 36.0267 31.8021C36.104 32.2192 36.0576 33.2234 35.9495 33.6405C35.6096 34.9536 34.8372 36.0041 33.7095 36.6066C33.5395 36.6993 33.4005 36.7611 33.385 36.7611C33.3696 36.7611 33.4314 36.6066 33.5241 36.4212C33.8948 35.6333 33.9412 34.8764 33.6631 34.0267C33.4932 33.5014 33.1379 32.868 32.4272 31.8021C31.5775 30.5662 31.3767 30.2418 31.1604 29.7938Z" fill="#FF007A"/>
<path d="M19.6512 34.5211C20.7944 33.5633 22.2002 32.8835 23.4979 32.6672C24.0541 32.5745 24.981 32.6054 25.4908 32.7445C26.3096 32.9608 27.0511 33.4242 27.4373 33.9958C27.8081 34.552 27.978 35.0309 28.148 36.0968C28.2097 36.5139 28.287 36.9465 28.3024 37.0392C28.426 37.5954 28.6732 38.0279 28.9822 38.2596C29.4611 38.615 30.2953 38.6304 31.1141 38.3214C31.2531 38.2751 31.3767 38.2287 31.3767 38.2442C31.4076 38.2751 30.9905 38.5532 30.7124 38.6922C30.3262 38.893 30.0172 38.9548 29.6001 38.9548C28.8586 38.9548 28.2252 38.5686 27.7154 37.7962C27.6073 37.6417 27.391 37.1937 27.2056 36.7766C26.6649 35.5252 26.3868 35.1545 25.7534 34.7374C25.1973 34.382 24.4866 34.3048 23.9459 34.5674C23.2353 34.9073 23.0499 35.8188 23.5443 36.3749C23.7451 36.6066 24.1159 36.792 24.4248 36.8384C24.9964 36.9156 25.4908 36.4676 25.4908 35.896C25.4908 35.5252 25.3518 35.309 24.981 35.139C24.4866 34.9227 23.9459 35.1699 23.9614 35.6488C23.9614 35.8497 24.0541 35.9732 24.2549 36.0659C24.3785 36.1277 24.3785 36.1277 24.2858 36.1123C23.8378 36.0196 23.7297 35.4634 24.085 35.1081C24.5175 34.6756 25.429 34.8609 25.738 35.4634C25.8616 35.7106 25.877 36.205 25.7689 36.514C25.5062 37.1937 24.7647 37.549 24.0077 37.3482C23.4979 37.2091 23.2816 37.0701 22.6637 36.4367C21.5823 35.3244 21.1652 35.1081 19.6203 34.8764L19.3268 34.83L19.6512 34.5211Z" fill="#FF007A"/>
<path fill-rule="evenodd" clip-rule="evenodd" d="M11.5252 9.66429C15.1247 14.0362 20.6707 20.8336 20.9488 21.2044C21.1805 21.5134 21.0878 21.8069 20.7016 22.0232C20.4853 22.1468 20.0373 22.2704 19.8211 22.2704C19.5739 22.2704 19.2804 22.1468 19.0795 21.9459C18.9405 21.8069 18.338 20.9263 16.9785 18.8099C15.9435 17.1878 15.0629 15.8437 15.0474 15.8283C14.9856 15.7974 14.9856 15.7974 16.8704 19.1652C18.0599 21.2816 18.4461 22.0386 18.4461 22.1313C18.4461 22.3321 18.3843 22.4403 18.1372 22.7184C17.72 23.1818 17.5347 23.7071 17.3956 24.8039C17.2411 26.0244 16.824 26.8895 15.6345 28.3571C14.9393 29.2222 14.8312 29.3767 14.6612 29.732C14.4449 30.1646 14.3831 30.4118 14.3522 30.9679C14.3214 31.555 14.3831 31.9257 14.5531 32.4819C14.7076 32.9762 14.8775 33.3007 15.2946 33.934C15.6499 34.4902 15.8662 34.9073 15.8662 35.0618C15.8662 35.1854 15.8971 35.1854 16.4533 35.0618C17.7818 34.7528 18.8787 34.2276 19.4812 33.5787C19.852 33.1771 19.9446 32.9608 19.9446 32.4046C19.9446 32.0493 19.9292 31.9721 19.8365 31.7558C19.682 31.4159 19.3885 31.1378 18.7551 30.7053C17.9209 30.1337 17.5656 29.6702 17.4729 29.0523C17.3956 28.527 17.4883 28.1717 17.9518 27.1985C18.4307 26.1943 18.5543 25.7772 18.6315 24.7576C18.6779 24.1087 18.7551 23.8461 18.9405 23.6453C19.1413 23.429 19.3112 23.3518 19.7902 23.29C20.578 23.1818 21.0878 22.981 21.4895 22.5948C21.8448 22.2704 21.9993 21.9459 22.0148 21.467L22.0302 21.1117L21.8294 20.8954C21.1033 20.0612 11.0462 9 10.9999 9C10.9845 9 11.2316 9.29352 11.5252 9.66429ZM16.2679 31.6322C16.4378 31.3387 16.3451 30.9679 16.067 30.7825C15.8044 30.6126 15.4028 30.6898 15.4028 30.9216C15.4028 30.9834 15.4337 31.0452 15.5263 31.0761C15.6654 31.1533 15.6808 31.2305 15.5727 31.4005C15.4645 31.5704 15.4645 31.7249 15.6036 31.833C15.8199 32.003 16.1134 31.9103 16.2679 31.6322Z" fill="#FF007A"/>
<path fill-rule="evenodd" clip-rule="evenodd" d="M22.5247 23.5063C22.1539 23.6144 21.7986 24.0161 21.6904 24.4177C21.6286 24.6649 21.6595 25.1129 21.7677 25.252C21.9376 25.4682 22.0921 25.53 22.5247 25.53C23.3743 25.53 24.1004 25.1593 24.1777 24.7113C24.2549 24.3405 23.9305 23.8307 23.4825 23.599C23.2507 23.4754 22.7718 23.429 22.5247 23.5063ZM23.5134 24.2787C23.637 24.0933 23.5906 23.8925 23.3589 23.7534C22.9418 23.4908 22.3084 23.7071 22.3084 24.1088C22.3084 24.3096 22.6328 24.5259 22.9418 24.5259C23.1426 24.5259 23.4207 24.4023 23.5134 24.2787Z" fill="#FF007A"/>
</g>
<defs>
<clipPath id="clip0">
<rect width="26" height="29.9394" fill="white" transform="translate(11 9)"/>
</clipPath>
</defs>
</svg>
