<svg width="16" height="16" viewBox="0 0 16 16" fill="none" xmlns="http://www.w3.org/2000/svg">
<path fill-rule="evenodd" clip-rule="evenodd" d="M8 16C3.58176 16 0 12.4182 0 8C0 3.58176 3.58176 0 8 0C12.4182 0 16 3.58176 16 8C16 12.4182 12.4182 16 8 16Z" fill="#2775CA"/>
<path d="M11 9.48534C11 8.02712 10.0459 7.53548 8.20045 7.3C6.83634 7.11671 6.5743 6.81877 6.5743 6.22712C6.5743 5.63534 7.0357 5.26671 7.91814 5.26671C8.72219 5.26671 9.18594 5.52699 9.3762 6.12918C9.3965 6.1952 9.43907 6.25335 9.49759 6.29501C9.55612 6.33666 9.62748 6.3596 9.70108 6.36041H10.4065C10.4525 6.36126 10.4982 6.35267 10.5403 6.33525C10.5824 6.31783 10.6199 6.292 10.6502 6.25959C10.6804 6.22724 10.7025 6.18905 10.715 6.14777C10.7275 6.10648 10.73 6.06313 10.7224 6.02082C10.4984 5.06877 9.80854 4.49589 8.72674 4.31671V3.3126C8.72674 3.22959 8.69136 3.15014 8.62838 3.09151C8.56523 3.03289 8.47978 2.99999 8.3907 3H7.71878C7.62967 3 7.54423 3.03288 7.48125 3.09151C7.45009 3.12049 7.42536 3.15492 7.40848 3.19284C7.3916 3.23076 7.3829 3.27141 7.38289 3.31247V4.28123C6.03905 4.4563 5.19023 5.28123 5.19023 6.33959C5.19023 7.70836 6.08602 8.23959 7.95851 8.47507C9.23292 8.66877 9.59567 8.92507 9.59567 9.59795C9.59567 10.2708 8.97983 10.7229 8.11075 10.7229C6.9394 10.7229 6.54303 10.2459 6.4109 9.62699C6.39548 9.55586 6.35437 9.49182 6.29444 9.44557C6.23451 9.39932 6.15939 9.37366 6.08162 9.37288H5.3156C5.24682 9.37251 5.17981 9.39322 5.12486 9.43183C5.06991 9.47043 5.03006 9.5248 5.01142 9.58658C4.99924 9.62767 4.99674 9.67055 5.00423 9.7126C5.19918 10.7541 5.91808 11.5167 7.38289 11.7V12.6875C7.38289 12.7704 7.41828 12.8499 7.48125 12.9085C7.54432 12.9671 7.62974 13.0001 7.71878 13H8.3907C8.47981 13 8.56525 12.9671 8.62838 12.9085C8.69136 12.8499 8.72674 12.7704 8.72674 12.6875V11.7C10.1154 11.4959 11 10.604 11 9.48534Z" fill="white"/>
<path d="M6.00292 13.7297C4.88236 13.3013 3.91402 12.5216 3.22885 11.4959C2.54481 10.4719 2.17773 9.25107 2.17758 7.99983C2.17774 6.74859 2.54482 5.52781 3.22885 4.50371C3.91404 3.47815 4.88238 2.6985 6.00292 2.2702C6.07467 2.23714 6.13616 2.18359 6.18041 2.11565C6.22466 2.04771 6.24991 1.96809 6.25327 1.88583V1.31669C6.25797 1.26623 6.24991 1.21536 6.22989 1.16923C6.20988 1.1231 6.17863 1.08334 6.13929 1.05398C6.09994 1.02447 6.05391 1.00635 6.0058 1.00142C5.95768 0.996494 5.90919 1.00494 5.86516 1.02591C4.45402 1.49665 3.22166 2.42638 2.34588 3.68095C1.47164 4.93361 1.00018 6.44659 1 8.0001C1.0002 9.55355 1.47166 11.0665 2.34588 12.3191C3.22166 13.5737 4.45402 14.5034 5.86516 14.9742C5.90911 14.9951 5.95754 15.0035 6.00557 14.9986C6.05361 14.9937 6.09959 14.9757 6.13889 14.9462C6.17819 14.9168 6.20944 14.877 6.22951 14.8309C6.24959 14.7847 6.25778 14.7339 6.25327 14.6834V14.1141C6.2499 14.0319 6.22465 13.9523 6.1804 13.8843C6.13614 13.8164 6.07466 13.7629 6.00292 13.7299V13.7297ZM10.1348 1.02577C10.0908 1.00486 10.0423 0.996443 9.99421 1.00137C9.94611 1.0063 9.90008 1.02439 9.8607 1.05385C9.82142 1.08326 9.79019 1.12302 9.77016 1.16914C9.75013 1.21525 9.742 1.2661 9.7466 1.31656V1.88583C9.74988 1.96811 9.77511 2.04777 9.8194 2.11571C9.86369 2.18365 9.92525 2.23714 9.99707 2.27007C11.1176 2.69844 12.086 3.47819 12.7711 4.50384C13.4551 5.52798 13.8221 6.74875 13.8223 7.99996C13.8221 9.25113 13.4551 10.4718 12.7711 11.4959C12.086 12.5216 11.1176 13.3013 9.99707 13.7297C9.92284 13.759 9.85899 13.8116 9.81418 13.8803C9.76937 13.9491 9.74577 14.0306 9.7466 14.114V14.6832C9.7419 14.7337 9.74998 14.7846 9.77002 14.8307C9.79006 14.8769 9.82134 14.9166 9.8607 14.9459C9.90003 14.9755 9.94607 14.9937 9.99419 14.9986C10.0423 15.0035 10.0908 14.995 10.1348 14.974C11.546 14.5033 12.7783 13.5735 13.6541 12.319C14.5283 11.0664 14.9998 9.55342 15 7.99996C14.9998 6.44646 14.5284 4.93348 13.6541 3.68082C12.7783 2.42625 11.546 1.49652 10.1348 1.02577V1.02577Z" fill="white"/>
</svg>
