<svg width="48" height="48" viewBox="0 0 48 48" fill="none" xmlns="http://www.w3.org/2000/svg">
<path d="M24 48C47.815 48 48 37.255 48 24C48 10.745 47.815 0 24 0C0.184999 0 0 10.745 0 24C0 37.255 0.184999 48 24 48Z" fill="#4FAA4D"/>
<path d="M26.723 19.6158V16.2444H34.5195V11H13.219V16.2443H21.015V19.6288C14.7176 19.9566 10 21.3003 10 22.9083C10 24.5162 14.7176 25.8599 21.015 26.1878V36.6944C21.9793 36.895 22.9775 37 24 37C24.9303 37 25.8406 36.913 26.723 36.7462V26.2007C33.1514 25.8969 38 24.5385 38 22.9083C38 21.2781 33.1514 19.9197 26.723 19.6158ZM24 24.9806C16.9754 24.9806 11.2809 23.9031 11.2809 22.5736C11.2809 21.4387 15.4308 20.4872 21.0151 20.2333V24.0883C21.9618 24.2273 22.9157 24.297 23.8691 24.297C24.823 24.297 25.7769 24.2273 26.723 24.0883V20.2216C32.4389 20.4581 36.7186 21.4207 36.7186 22.5736C36.7185 23.9031 31.0239 24.9806 24 24.9806Z" fill="white"/>
</svg>
