<svg width="48" height="48" viewBox="0 0 48 48" fill="none" xmlns="http://www.w3.org/2000/svg">
<path d="M24 48C47.815 48 48 37.255 48 24C48 10.745 47.815 0 24 0C0.184999 0 0 10.745 0 24C0 37.255 0.184999 48 24 48Z" fill="#002FFF"/>
<path fill-rule="evenodd" clip-rule="evenodd" d="M23.2929 13.7071C23.6834 13.3166 24.3166 13.3166 24.7071 13.7071L34.2929 23.2929C34.6834 23.6834 34.6834 24.3166 34.2929 24.7071L24.7071 34.2929C24.3166 34.6834 23.6834 34.6834 23.2929 34.2929L13.7071 24.7071C13.3166 24.3166 13.3166 23.6834 13.7071 23.2929L23.2929 13.7071Z" fill="white"/>
</svg>
