<svg width="48" height="48" viewBox="0 0 48 48" fill="none" xmlns="http://www.w3.org/2000/svg">
<path d="M24 48C47.815 48 48 37.255 48 24C48 10.745 47.815 0 24 0C0.184999 0 0 10.745 0 24C0 37.255 0.184999 48 24 48Z" fill="#F4F4F4"/>
<path d="M10.0141 13.7486C11.8987 12.6574 13.8715 11.8028 15.9466 11.1848C18.7735 10.3443 21.6427 9.9488 24.5895 10.0053C25.9588 10.0336 28.2387 10.256 28.6233 10.4043C28.6374 10.4326 28.6092 10.4503 28.5774 10.4503C28.4469 10.5103 28.2986 10.5527 28.1645 10.6127C25.7365 11.6297 24.0143 13.7662 23.5131 16.3583C23.439 16.7856 23.3967 17.2129 23.3825 17.6402C23.3684 18.29 23.3084 18.9362 23.1179 19.5683C22.4685 21.8532 20.6016 23.633 18.29 24.1662C15.2549 24.8548 12.1916 23.354 10.8682 20.5395C10.7941 20.377 10.7376 20.2146 10.7058 20.0521C10.4835 19.0951 10.3247 18.1381 10.2047 17.1634C10.0741 16.0899 10 15.0128 10 13.9393C10.0141 13.8651 10.0141 13.8227 10.0141 13.7486Z" fill="#F9BF1A"/>
<path d="M31.6828 31.4083C31.7111 31.1293 31.7428 30.8786 31.7569 30.6137C31.8311 29.1553 31.5205 27.7709 30.8288 26.489C30.1653 25.2672 29.2371 24.2925 28.0478 23.558C27.9455 23.4838 27.8255 23.4273 27.7231 23.3532C26.0891 22.322 25.0868 20.8635 24.7339 18.9636C24.1022 15.5452 26.2515 12.2469 29.6218 11.4347C30.8147 11.1557 31.9757 11.1839 33.1404 11.5512C34.0968 11.8479 35.0108 12.2434 35.9213 12.6707C36.5531 12.9673 37.1565 13.2887 37.7636 13.6277C37.8377 13.6736 37.8941 13.7018 37.9859 13.7583C37.9859 13.8184 38 13.8608 38 13.9208C38 14.7012 37.9541 15.4958 37.8977 16.2762C37.7953 17.4239 37.6189 18.5752 37.3824 19.6946C36.6589 23.0247 35.3814 26.1041 33.525 28.961C33.0098 29.7556 32.4522 30.5219 31.8628 31.26C31.8028 31.3059 31.7711 31.3624 31.6828 31.4083Z" fill="#6AD2FF"/>
<path d="M24.0027 37.9999C23.7804 37.9116 23.1063 37.4984 22.3828 37.0146C20.7771 35.9411 19.2913 34.7016 17.9361 33.3173C16.5845 31.9294 15.3775 30.4144 14.3434 28.7794C13.3729 27.2609 12.5647 25.6718 11.9154 23.9908C11.9013 23.9449 11.8872 23.9167 11.8695 23.8425C11.9436 23.8884 11.9719 23.9025 12.0177 23.9308C12.533 24.3298 13.0765 24.6688 13.6658 24.916C14.4176 25.2409 15.1975 25.4634 16.0198 25.534C17.682 25.6965 19.2419 25.3575 20.7171 24.5311C21.4829 24.1038 22.3087 23.8248 23.1769 23.7048C26.2543 23.3234 29.3176 25.1491 30.274 28.3309C30.7611 29.966 30.6128 31.5551 29.8611 33.1054C29.7588 33.3102 29.6705 33.5044 29.5647 33.6951C29.5047 33.8116 29.4341 33.9317 29.3282 34.02C27.7719 35.4961 26.0638 36.7921 24.2109 37.8834C24.1368 37.9257 24.0627 37.9716 24.0027 37.9999Z" fill="#08CCA0"/>
</svg>
