<svg width="48" height="48" viewBox="0 0 48 48" fill="none" xmlns="http://www.w3.org/2000/svg">
<path d="M24 48C47.815 48 48 37.255 48 24C48 10.745 47.815 0 24 0C0.184999 0 0 10.745 0 24C0 37.255 0.184999 48 24 48Z" fill="#F4F4F4"/>
<path d="M16.5775 36.6987C18.2268 37.8395 21.251 36.417 23.3948 33.5232C23.4251 33.4849 23.4575 33.449 23.4859 33.4089C24.6652 31.7663 24.2588 29.4952 22.5802 28.3339C20.9015 27.1727 18.5851 27.5632 17.4075 29.2055C17.3785 29.2458 17.3548 29.2878 17.3279 29.3288C15.2739 32.2852 14.9283 35.5589 16.5775 36.6987Z" fill="#ED8117"/>
<path d="M18.2629 34.5101C19.4109 35.2848 21.53 34.2988 23.0398 32.3076C23.0619 32.2812 23.0845 32.2566 23.1051 32.2289C23.3025 31.9629 23.4434 31.6611 23.5196 31.3412C23.5957 31.0214 23.6056 30.6899 23.5485 30.3663C23.4915 30.0427 23.3687 29.7335 23.1874 29.4568C23.0061 29.18 22.7699 28.9414 22.4927 28.7548C21.3237 27.9651 19.7027 28.2417 18.8727 29.3717C18.8516 29.3995 18.8356 29.4283 18.817 29.4561C17.3691 31.4898 17.1143 33.7348 18.2629 34.5101Z" fill="#EEBB18"/>
<path d="M11.1378 25.108C10.9646 25.325 10.8793 25.6521 11.3497 25.5093C12.6915 25.1025 15.7335 24.6277 19.2645 27.0152C24.0335 30.2393 23.6463 21.8828 23.6463 21.8828C22.5137 21.1178 16.8154 18.0127 11.1378 25.108ZM29.2671 37.7061C29.2873 38.1784 29.5733 37.9928 29.7232 37.7646C34.6322 30.2864 29.7447 26.1665 28.6306 25.3977C28.6306 25.3977 20.4823 27.8151 25.1727 31.0551C28.6456 33.4539 29.2084 36.3594 29.2671 37.7061Z" fill="#5B6A72"/>
<path d="M24.3113 32.3228C25.2425 32.9938 25.8057 33.1033 26.4825 32.2884C27.1592 31.4735 30.7184 27.4045 34.2742 22.9185C37.83 18.4325 35.661 10.713 35.2341 10.4055L35.2286 10.412L35.2323 10.4039C34.8055 10.0964 26.9629 10.6081 24.0282 15.5411C21.0934 20.474 18.5435 25.2696 18.0212 26.1951C17.4988 27.1205 17.789 27.6273 18.72 28.2979C19.1442 28.6027 20.3387 29.4629 21.5156 30.3102C22.6924 31.1575 23.8871 32.018 24.3113 32.3228Z" fill="#5B6A72"/>
<path d="M25.3616 33.3139H25.323C24.898 33.3027 24.4549 33.1175 23.8414 32.6942C23.41 32.3968 22.2084 31.568 21.0102 30.7406L20.9397 30.692L19.0547 29.3921L18.0371 28.6903C17.4247 28.2674 17.0972 27.9217 16.9439 27.5341C16.704 26.9277 16.9625 26.3717 17.1772 26.0061C17.2898 25.8147 17.496 25.4528 17.7812 24.9519C18.8294 23.1107 21.01 19.2791 23.4204 15.3984C24.2877 14.0018 25.6139 12.8298 27.3624 11.9133C28.2865 11.4292 29.8304 10.7628 31.9329 10.3369C32.764 10.1685 33.616 10.0543 34.3317 10.0151C35.4288 9.95501 35.6234 10.0896 35.7171 10.1543L35.7258 10.1605C35.822 10.2272 36.0148 10.3797 36.3197 11.3894C36.5238 12.0661 36.701 12.8939 36.8186 13.7202C37.1415 15.9867 37.3106 20.2389 34.8158 23.2528C31.8958 26.7823 28.9462 30.084 27.5286 31.6698C27.1426 32.102 26.8637 32.414 26.7177 32.5824C26.505 32.8275 26.2963 33.0048 26.0793 33.1251C25.8612 33.2482 25.6137 33.3133 25.3616 33.3139ZM34.8524 10.9021C34.0843 10.9021 32.4055 11.0564 30.5122 11.6215C28.4598 12.2334 25.7006 13.4671 24.2124 15.8653C21.8106 19.7314 19.6352 23.5529 18.5897 25.3893C18.3026 25.8936 18.0952 26.2575 17.9792 26.4549C17.7294 26.8792 17.7565 27.0811 17.8066 27.2095C17.8873 27.4134 18.1302 27.65 18.5711 27.9543L19.589 28.6561L21.474 29.9559L21.5447 30.0048C22.7429 30.8314 23.9442 31.6601 24.3757 31.9583C25.2849 32.5855 25.5546 32.5271 26.0114 32.0009C26.1617 31.8276 26.4425 31.5125 26.8311 31.0783C28.2449 29.4961 31.1867 26.2036 34.0951 22.6883C35.9007 20.5065 36.1575 17.5455 36.0552 15.4458C35.9439 13.1713 35.3885 11.3621 35.1665 10.915C35.0621 10.9052 34.9573 10.9007 34.8524 10.9014" fill="#F4F4F4"/>
<path d="M27.1838 21.2593C28.6696 22.2802 30.7227 21.9331 31.7672 20.4846C32.8118 19.036 32.4574 17.0347 30.9715 16.0138C29.4857 14.9929 27.4333 15.3393 26.388 16.7883C25.3427 18.2374 25.6985 20.2382 27.1838 21.2593Z" fill="#FEFEFE"/>
<path d="M29.0712 22.2987C28.384 22.2967 27.7105 22.1111 27.1241 21.762C26.5376 21.4129 26.0605 20.9138 25.7448 20.3188C25.4291 19.7238 25.2869 19.0559 25.3335 18.3876C25.3801 17.7193 25.6139 17.0762 26.0093 16.5284C26.293 16.1353 26.6534 15.8006 27.0699 15.5434C27.4864 15.2861 27.9509 15.1115 28.4367 15.0294C28.9225 14.9472 29.4201 14.9593 29.9012 15.0648C30.3822 15.1703 30.8372 15.3672 31.2401 15.6443C32.933 16.8075 33.3401 19.0959 32.1477 20.7452C31.865 21.1391 31.5049 21.4744 31.0883 21.7317C30.6717 21.9889 30.2068 22.1629 29.7207 22.2437C29.5062 22.2801 29.2889 22.2985 29.0712 22.2987ZM29.0829 15.8798C28.919 15.8798 28.7554 15.8935 28.5939 15.9208C28.2282 15.9818 27.8785 16.1128 27.5651 16.3065C27.2517 16.5001 26.9809 16.7524 26.7683 17.0488C25.8715 18.2912 26.1778 20.0143 27.4514 20.8898C27.7546 21.0982 28.0971 21.2464 28.4591 21.3258C28.8212 21.4052 29.1957 21.4142 29.5614 21.3524C29.927 21.2907 30.2766 21.1592 30.5901 20.9657C30.9036 20.7721 31.1749 20.5203 31.3885 20.2245C32.2865 18.9823 31.9798 17.2596 30.7051 16.3837C30.231 16.056 29.6641 15.8799 29.0829 15.8798Z" fill="#5B6A72"/>
</svg>
