<svg width="48" height="48" viewBox="0 0 48 48" fill="none" xmlns="http://www.w3.org/2000/svg">
<path d="M24 48C47.815 48 48 37.255 48 24C48 10.745 47.815 0 24 0C0.184999 0 0 10.745 0 24C0 37.255 0.184999 48 24 48Z" fill="#303030"/>
<path d="M32.4835 14H35.9547L28.7328 21.1923C26.1185 23.7958 21.8801 23.7958 19.2658 21.1923L12.0439 14H15.5152L21.0014 19.4638C22.6571 21.1127 25.3414 21.1127 26.9972 19.4638L32.4835 14Z" fill="white"/>
<path d="M15.4712 33.9999H12L19.2665 26.7632C21.8807 24.1597 26.1192 24.1597 28.7335 26.7632L36 33.9999H32.5288L26.9978 28.4916C25.3421 26.8427 22.6578 26.8427 21.0021 28.4916L15.4712 33.9999Z" fill="white"/>
</svg>
